<?xml version="1.0" encoding="utf-8"?>
<!-- Generator: Adobe Illustrator 24.2.1, SVG Export Plug-In . SVG Version: 6.00 Build 0)  -->
<svg version="1.1" id="Layer_1" xmlns="http://www.w3.org/2000/svg" xmlns:xlink="http://www.w3.org/1999/xlink" x="0px" y="0px"
	 viewBox="0 0 84.4 83.8" style="enable-background:new 0 0 84.4 83.8;" xml:space="preserve">
<style type="text/css">
	.st0{fill:#888888;}
	.st1{fill:#1651BE;}
	.st2{fill:#FF5A00;}
</style>
<g>
	<g id="Layer_2_1_">
		<g id="Layer_1-2">
			<path class="st0" d="M41.7,83.8L41.7,83.8z"/>
			<path class="st1" d="M42.9,0c5.8,0.1,10.4,4.8,10.4,10.6v62.6c0,5.8-4.6,10.5-10.4,10.6c23-0.2,41.5-18.9,41.5-41.9l0,0
				C84.4,18.9,65.9,0.2,42.9,0z"/>
			<path class="st0" d="M41.7,0L41.7,0z"/>
			<path class="st2" d="M31.1,73.2V10.6c0-5.8,4.6-10.5,10.4-10.6C18.5,0.2,0,18.9,0,41.9l0,0c0,23,18.5,41.7,41.5,41.9
				C35.7,83.7,31.1,79,31.1,73.2z"/>
		</g>
	</g>
</g>
</svg>
